M48
METRIC,LZ,000.000
;FILE_FORMAT=3:3
;TYPE=PLATED
;Layer: PTH_Through
;EasyEDA v6.5.22, 2023-01-22 13:06:19
;0c68e4b3833447f1a742fbae9dbd46bb,e6ab44e7981244f9a09eab8f9c412657,10
;Gerber Generator version 0.2
;Holesize 1 = 0.701 mm
T01C0.701
;Holesize 2 = 0.889 mm
T02C0.889
;Holesize 3 = 1.000 mm
T03C1.000
%
G05
G90
T01
X047371Y083709
X047371Y085709
X011938Y070469
X011938Y072469
X011938Y068469
X011938Y066469
X011938Y082915
X011938Y084915
X011938Y080915
X011938Y078915
X012065Y049451
X012065Y051451
X012065Y053451
X012065Y047451
X012065Y045451
X012065Y055451
X012065Y057451
X012065Y059451
T02
X022352Y088011
X022352Y085471
X022352Y082931
X022352Y080391
X022352Y077851
X022352Y075311
X022352Y072771
X022352Y070231
X022352Y067691
X022352Y065151
X022352Y062611
X022352Y060071
X022352Y057531
X022352Y054991
X022352Y052451
X022352Y049911
X022352Y047371
X022352Y044831
X022352Y042291
X022352Y039751
X040132Y039751
X040132Y042291
X040132Y044831
X040132Y047371
X040132Y049911
X040132Y052451
X040132Y054991
X040132Y057531
X040132Y060071
X040132Y062611
X040132Y065151
X040132Y067691
X040132Y070231
X040132Y072771
X040132Y075311
X040132Y077851
X040132Y080391
X040132Y082931
X040132Y085471
X040132Y088011
T03
X022352Y088011
X022352Y085471
X022352Y082931
X022352Y080391
X022352Y077851
X022352Y075311
X022352Y072771
X022352Y070231
X022352Y067691
X022352Y065151
X022352Y062611
X022352Y060071
X022352Y057531
X022352Y054991
X022352Y052451
X022352Y049911
X022352Y047371
X022352Y044831
X022352Y042291
X022352Y039751
X040132Y039751
X040132Y042291
X040132Y044831
X040132Y047371
X040132Y049911
X040132Y052451
X040132Y054991
X040132Y057531
X040132Y060071
X040132Y062611
X040132Y065151
X040132Y067691
X040132Y070231
X040132Y072771
X040132Y075311
X040132Y077851
X040132Y080391
X040132Y082931
X040132Y085471
X040132Y088011
M30
