G04 Layer: BottomSilkscreenLayer*
G04 EasyEDA v6.5.22, 2023-01-22 13:06:19*
G04 0c68e4b3833447f1a742fbae9dbd46bb,e6ab44e7981244f9a09eab8f9c412657,10*
G04 Gerber Generator version 0.2*
G04 Scale: 100 percent, Rotated: No, Reflected: No *
G04 Dimensions in millimeters *
G04 leading zeros omitted , absolute positions ,4 integer and 5 decimal *
%FSLAX45Y45*%
%MOMM*%

%ADD10C,0.1524*%
%ADD11C,0.2032*%
%ADD12C,0.2540*%

%LPD*%
D10*
X3710820Y8328901D02*
G01*
X3716408Y8340331D01*
X3728092Y8352015D01*
X3739522Y8357857D01*
X3762636Y8357857D01*
X3774320Y8352015D01*
X3785750Y8340331D01*
X3791592Y8328901D01*
X3797180Y8311629D01*
X3797180Y8282673D01*
X3791592Y8265401D01*
X3785750Y8253971D01*
X3774320Y8242287D01*
X3762636Y8236445D01*
X3739522Y8236445D01*
X3728092Y8242287D01*
X3716408Y8253971D01*
X3710820Y8265401D01*
X3710820Y8282673D01*
X3739522Y8282673D02*
G01*
X3710820Y8282673D01*
X3710820Y7053900D02*
G01*
X3716408Y7065330D01*
X3728092Y7077014D01*
X3739522Y7082856D01*
X3762636Y7082856D01*
X3774320Y7077014D01*
X3785750Y7065330D01*
X3791592Y7053900D01*
X3797180Y7036628D01*
X3797180Y7007672D01*
X3791592Y6990400D01*
X3785750Y6978970D01*
X3774320Y6967286D01*
X3762636Y6961444D01*
X3739522Y6961444D01*
X3728092Y6967286D01*
X3716408Y6978970D01*
X3710820Y6990400D01*
X3710820Y7007672D01*
X3739522Y7007672D02*
G01*
X3710820Y7007672D01*
X3710820Y4478898D02*
G01*
X3716408Y4490328D01*
X3728092Y4502012D01*
X3739522Y4507854D01*
X3762636Y4507854D01*
X3774320Y4502012D01*
X3785750Y4490328D01*
X3791592Y4478898D01*
X3797180Y4461626D01*
X3797180Y4432670D01*
X3791592Y4415398D01*
X3785750Y4403968D01*
X3774320Y4392284D01*
X3762636Y4386442D01*
X3739522Y4386442D01*
X3728092Y4392284D01*
X3716408Y4403968D01*
X3710820Y4415398D01*
X3710820Y4432670D01*
X3739522Y4432670D02*
G01*
X3710820Y4432670D01*
X3710820Y5778898D02*
G01*
X3716408Y5790328D01*
X3728092Y5802012D01*
X3739522Y5807854D01*
X3762636Y5807854D01*
X3774320Y5802012D01*
X3785750Y5790328D01*
X3791592Y5778898D01*
X3797180Y5761626D01*
X3797180Y5732670D01*
X3791592Y5715398D01*
X3785750Y5703968D01*
X3774320Y5692284D01*
X3762636Y5686442D01*
X3739522Y5686442D01*
X3728092Y5692284D01*
X3716408Y5703968D01*
X3710820Y5715398D01*
X3710820Y5732670D01*
X3739522Y5732670D02*
G01*
X3710820Y5732670D01*
X3747185Y4009694D02*
G01*
X3735755Y4015536D01*
X3718483Y4032808D01*
X3718483Y3911650D01*
X3611041Y4015536D02*
G01*
X3616883Y4026966D01*
X3634155Y4032808D01*
X3645585Y4032808D01*
X3663111Y4026966D01*
X3674541Y4009694D01*
X3680383Y3980738D01*
X3680383Y3952036D01*
X3674541Y3928922D01*
X3663111Y3917238D01*
X3645585Y3911650D01*
X3639997Y3911650D01*
X3622471Y3917238D01*
X3611041Y3928922D01*
X3605199Y3946194D01*
X3605199Y3952036D01*
X3611041Y3969308D01*
X3622471Y3980738D01*
X3639997Y3986580D01*
X3645585Y3986580D01*
X3663111Y3980738D01*
X3674541Y3969308D01*
X3680383Y3952036D01*
X3747312Y4259694D02*
G01*
X3735628Y4265536D01*
X3718356Y4282808D01*
X3718356Y4161650D01*
X3599484Y4282808D02*
G01*
X3657142Y4161650D01*
X3680256Y4282808D02*
G01*
X3599484Y4282808D01*
X3747312Y4759629D02*
G01*
X3735628Y4765471D01*
X3718356Y4782743D01*
X3718356Y4661585D01*
X3651554Y4782743D02*
G01*
X3668826Y4776901D01*
X3674668Y4765471D01*
X3674668Y4753787D01*
X3668826Y4742357D01*
X3657142Y4736515D01*
X3634028Y4730927D01*
X3616756Y4725085D01*
X3605326Y4713401D01*
X3599484Y4701971D01*
X3599484Y4684699D01*
X3605326Y4673015D01*
X3611168Y4667427D01*
X3628440Y4661585D01*
X3651554Y4661585D01*
X3668826Y4667427D01*
X3674668Y4673015D01*
X3680256Y4684699D01*
X3680256Y4701971D01*
X3674668Y4713401D01*
X3662984Y4725085D01*
X3645712Y4730927D01*
X3622598Y4736515D01*
X3611168Y4742357D01*
X3605326Y4753787D01*
X3605326Y4765471D01*
X3611168Y4776901D01*
X3628440Y4782743D01*
X3651554Y4782743D01*
X3747312Y5009756D02*
G01*
X3735628Y5015344D01*
X3718356Y5032870D01*
X3718356Y4911458D01*
X3605326Y4992230D02*
G01*
X3611168Y4974958D01*
X3622598Y4963528D01*
X3639870Y4957686D01*
X3645712Y4957686D01*
X3662984Y4963528D01*
X3674668Y4974958D01*
X3680256Y4992230D01*
X3680256Y4998072D01*
X3674668Y5015344D01*
X3662984Y5027028D01*
X3645712Y5032870D01*
X3639870Y5032870D01*
X3622598Y5027028D01*
X3611168Y5015344D01*
X3605326Y4992230D01*
X3605326Y4963528D01*
X3611168Y4934572D01*
X3622598Y4917300D01*
X3639870Y4911458D01*
X3651554Y4911458D01*
X3668826Y4917300D01*
X3674668Y4928730D01*
X3741470Y5278851D02*
G01*
X3741470Y5284693D01*
X3735628Y5296123D01*
X3730040Y5301965D01*
X3718356Y5307807D01*
X3695242Y5307807D01*
X3683812Y5301965D01*
X3677970Y5296123D01*
X3672128Y5284693D01*
X3672128Y5273009D01*
X3677970Y5261579D01*
X3689654Y5244307D01*
X3747312Y5186649D01*
X3666540Y5186649D01*
X3593642Y5307807D02*
G01*
X3611168Y5301965D01*
X3622598Y5284693D01*
X3628440Y5255737D01*
X3628440Y5238465D01*
X3622598Y5209509D01*
X3611168Y5192237D01*
X3593642Y5186649D01*
X3582212Y5186649D01*
X3564940Y5192237D01*
X3553256Y5209509D01*
X3547668Y5238465D01*
X3547668Y5255737D01*
X3553256Y5284693D01*
X3564940Y5301965D01*
X3582212Y5307807D01*
X3593642Y5307807D01*
X3741470Y5528932D02*
G01*
X3741470Y5534774D01*
X3735628Y5546204D01*
X3730040Y5552046D01*
X3718356Y5557888D01*
X3695242Y5557888D01*
X3683812Y5552046D01*
X3677970Y5546204D01*
X3672128Y5534774D01*
X3672128Y5523090D01*
X3677970Y5511660D01*
X3689654Y5494388D01*
X3747312Y5436476D01*
X3666540Y5436476D01*
X3628440Y5534774D02*
G01*
X3616756Y5540362D01*
X3599484Y5557888D01*
X3599484Y5436476D01*
X3741470Y6028870D02*
G01*
X3741470Y6034712D01*
X3735628Y6046142D01*
X3730040Y6051984D01*
X3718356Y6057826D01*
X3695242Y6057826D01*
X3683812Y6051984D01*
X3677970Y6046142D01*
X3672128Y6034712D01*
X3672128Y6023028D01*
X3677970Y6011598D01*
X3689654Y5994326D01*
X3747312Y5936414D01*
X3666540Y5936414D01*
X3622598Y6028870D02*
G01*
X3622598Y6034712D01*
X3616756Y6046142D01*
X3611168Y6051984D01*
X3599484Y6057826D01*
X3576370Y6057826D01*
X3564940Y6051984D01*
X3559098Y6046142D01*
X3553256Y6034712D01*
X3553256Y6023028D01*
X3559098Y6011598D01*
X3570528Y5994326D01*
X3628440Y5936414D01*
X3547668Y5936414D01*
X3747312Y6307886D02*
G01*
X3747312Y6186474D01*
X3747312Y6307886D02*
G01*
X3695242Y6307886D01*
X3677970Y6302044D01*
X3672128Y6296202D01*
X3666540Y6284772D01*
X3666540Y6273088D01*
X3672128Y6261658D01*
X3677970Y6255816D01*
X3695242Y6249974D01*
X3747312Y6249974D01*
X3706926Y6249974D02*
G01*
X3666540Y6186474D01*
X3547668Y6290360D02*
G01*
X3559098Y6302044D01*
X3576370Y6307886D01*
X3599484Y6307886D01*
X3616756Y6302044D01*
X3628440Y6290360D01*
X3628440Y6278930D01*
X3622598Y6267246D01*
X3616756Y6261658D01*
X3605326Y6255816D01*
X3570528Y6244386D01*
X3559098Y6238544D01*
X3553256Y6232702D01*
X3547668Y6221272D01*
X3547668Y6203746D01*
X3559098Y6192316D01*
X3576370Y6186474D01*
X3599484Y6186474D01*
X3616756Y6192316D01*
X3628440Y6203746D01*
X3468928Y6307886D02*
G01*
X3468928Y6186474D01*
X3509568Y6307886D02*
G01*
X3428542Y6307886D01*
X3741470Y6528930D02*
G01*
X3741470Y6534772D01*
X3735628Y6546202D01*
X3730040Y6552044D01*
X3718356Y6557886D01*
X3695242Y6557886D01*
X3683812Y6552044D01*
X3677970Y6546202D01*
X3672128Y6534772D01*
X3672128Y6523088D01*
X3677970Y6511658D01*
X3689654Y6494386D01*
X3747312Y6436474D01*
X3666540Y6436474D01*
X3559098Y6540360D02*
G01*
X3564940Y6552044D01*
X3582212Y6557886D01*
X3593642Y6557886D01*
X3611168Y6552044D01*
X3622598Y6534772D01*
X3628440Y6505816D01*
X3628440Y6476860D01*
X3622598Y6453746D01*
X3611168Y6442316D01*
X3593642Y6436474D01*
X3588054Y6436474D01*
X3570528Y6442316D01*
X3559098Y6453746D01*
X3553256Y6471272D01*
X3553256Y6476860D01*
X3559098Y6494386D01*
X3570528Y6505816D01*
X3588054Y6511658D01*
X3593642Y6511658D01*
X3611168Y6505816D01*
X3622598Y6494386D01*
X3628440Y6476860D01*
X3741470Y6803867D02*
G01*
X3741470Y6809709D01*
X3735628Y6821139D01*
X3730040Y6826981D01*
X3718356Y6832823D01*
X3695242Y6832823D01*
X3683812Y6826981D01*
X3677970Y6821139D01*
X3672128Y6809709D01*
X3672128Y6798025D01*
X3677970Y6786595D01*
X3689654Y6769323D01*
X3747312Y6711411D01*
X3666540Y6711411D01*
X3547668Y6832823D02*
G01*
X3605326Y6711411D01*
X3628440Y6832823D02*
G01*
X3547668Y6832823D01*
X3741470Y7303884D02*
G01*
X3741470Y7309726D01*
X3735628Y7321156D01*
X3730040Y7326998D01*
X3718356Y7332840D01*
X3695242Y7332840D01*
X3683812Y7326998D01*
X3677970Y7321156D01*
X3672128Y7309726D01*
X3672128Y7298042D01*
X3677970Y7286612D01*
X3689654Y7269340D01*
X3747312Y7211428D01*
X3666540Y7211428D01*
X3599484Y7332840D02*
G01*
X3616756Y7326998D01*
X3622598Y7315568D01*
X3622598Y7303884D01*
X3616756Y7292454D01*
X3605326Y7286612D01*
X3582212Y7280770D01*
X3564940Y7274928D01*
X3553256Y7263498D01*
X3547668Y7252068D01*
X3547668Y7234542D01*
X3553256Y7223112D01*
X3559098Y7217270D01*
X3576370Y7211428D01*
X3599484Y7211428D01*
X3616756Y7217270D01*
X3622598Y7223112D01*
X3628440Y7234542D01*
X3628440Y7252068D01*
X3622598Y7263498D01*
X3611168Y7274928D01*
X3593642Y7280770D01*
X3570528Y7286612D01*
X3559098Y7292454D01*
X3553256Y7303884D01*
X3553256Y7315568D01*
X3559098Y7326998D01*
X3576370Y7332840D01*
X3599484Y7332840D01*
X3651110Y7582776D02*
G01*
X3697338Y7461618D01*
X3651110Y7582776D02*
G01*
X3604882Y7461618D01*
X3680066Y7502004D02*
G01*
X3622154Y7502004D01*
X3566782Y7542390D02*
G01*
X3566782Y7461618D01*
X3566782Y7507592D02*
G01*
X3561194Y7525118D01*
X3549510Y7536548D01*
X3538080Y7542390D01*
X3520554Y7542390D01*
X3482454Y7507592D02*
G01*
X3413366Y7507592D01*
X3413366Y7519276D01*
X3418954Y7530706D01*
X3424796Y7536548D01*
X3436480Y7542390D01*
X3453752Y7542390D01*
X3465182Y7536548D01*
X3476866Y7525118D01*
X3482454Y7507592D01*
X3482454Y7496162D01*
X3476866Y7478890D01*
X3465182Y7467206D01*
X3453752Y7461618D01*
X3436480Y7461618D01*
X3424796Y7467206D01*
X3413366Y7478890D01*
X3329038Y7582776D02*
G01*
X3340468Y7582776D01*
X3352152Y7576934D01*
X3357994Y7559662D01*
X3357994Y7461618D01*
X3375266Y7542390D02*
G01*
X3334880Y7542390D01*
X3685692Y7832714D02*
G01*
X3622192Y7832714D01*
X3656990Y7786486D01*
X3639464Y7786486D01*
X3628034Y7780898D01*
X3622192Y7775056D01*
X3616604Y7757784D01*
X3616604Y7746100D01*
X3622192Y7728828D01*
X3633876Y7717398D01*
X3651148Y7711556D01*
X3668420Y7711556D01*
X3685692Y7717398D01*
X3691534Y7722986D01*
X3697376Y7734670D01*
X3578504Y7832714D02*
G01*
X3532276Y7711556D01*
X3486048Y7832714D02*
G01*
X3532276Y7711556D01*
X3436264Y7832714D02*
G01*
X3372764Y7832714D01*
X3407562Y7786486D01*
X3390290Y7786486D01*
X3378606Y7780898D01*
X3372764Y7775056D01*
X3367176Y7757784D01*
X3367176Y7746100D01*
X3372764Y7728828D01*
X3384448Y7717398D01*
X3401720Y7711556D01*
X3418992Y7711556D01*
X3436264Y7717398D01*
X3442106Y7722986D01*
X3447948Y7734670D01*
X3685692Y8107646D02*
G01*
X3622192Y8107646D01*
X3656990Y8061672D01*
X3639464Y8061672D01*
X3628034Y8055830D01*
X3622192Y8049988D01*
X3616604Y8032716D01*
X3616604Y8021286D01*
X3622192Y8003760D01*
X3633876Y7992330D01*
X3651148Y7986488D01*
X3668420Y7986488D01*
X3685692Y7992330D01*
X3691534Y7998172D01*
X3697376Y8009602D01*
X3578504Y8107646D02*
G01*
X3578504Y7986488D01*
X3578504Y8107646D02*
G01*
X3503320Y8107646D01*
X3578504Y8049988D02*
G01*
X3532276Y8049988D01*
X3578504Y7986488D02*
G01*
X3503320Y7986488D01*
X3465220Y8107646D02*
G01*
X3465220Y7986488D01*
X3465220Y8107646D02*
G01*
X3384448Y7986488D01*
X3384448Y8107646D02*
G01*
X3384448Y7986488D01*
X3697376Y8607732D02*
G01*
X3651148Y8486574D01*
X3604920Y8607732D02*
G01*
X3651148Y8486574D01*
X3486048Y8590460D02*
G01*
X3497478Y8601890D01*
X3515004Y8607732D01*
X3537864Y8607732D01*
X3555390Y8601890D01*
X3566820Y8590460D01*
X3566820Y8578776D01*
X3560978Y8567346D01*
X3555390Y8561504D01*
X3543706Y8555916D01*
X3509162Y8544232D01*
X3497478Y8538390D01*
X3491890Y8532802D01*
X3486048Y8521118D01*
X3486048Y8503846D01*
X3497478Y8492416D01*
X3515004Y8486574D01*
X3537864Y8486574D01*
X3555390Y8492416D01*
X3566820Y8503846D01*
X3447948Y8607732D02*
G01*
X3401720Y8550074D01*
X3401720Y8486574D01*
X3355492Y8607732D02*
G01*
X3401720Y8550074D01*
X3236620Y8590460D02*
G01*
X3248304Y8601890D01*
X3265576Y8607732D01*
X3288690Y8607732D01*
X3305962Y8601890D01*
X3317392Y8590460D01*
X3317392Y8578776D01*
X3311804Y8567346D01*
X3305962Y8561504D01*
X3294278Y8555916D01*
X3259734Y8544232D01*
X3248304Y8538390D01*
X3242462Y8532802D01*
X3236620Y8521118D01*
X3236620Y8503846D01*
X3248304Y8492416D01*
X3265576Y8486574D01*
X3288690Y8486574D01*
X3305962Y8492416D01*
X3317392Y8503846D01*
X3697376Y8857856D02*
G01*
X3651148Y8736444D01*
X3604920Y8857856D02*
G01*
X3651148Y8736444D01*
X3566820Y8857856D02*
G01*
X3566820Y8736444D01*
X3566820Y8857856D02*
G01*
X3515004Y8857856D01*
X3497478Y8852014D01*
X3491890Y8846172D01*
X3486048Y8834742D01*
X3486048Y8823058D01*
X3491890Y8811628D01*
X3497478Y8805786D01*
X3515004Y8799944D01*
X3566820Y8799944D02*
G01*
X3515004Y8799944D01*
X3497478Y8794356D01*
X3491890Y8788514D01*
X3486048Y8776830D01*
X3486048Y8759558D01*
X3491890Y8748128D01*
X3497478Y8742286D01*
X3515004Y8736444D01*
X3566820Y8736444D01*
X3447948Y8857856D02*
G01*
X3447948Y8771242D01*
X3442106Y8753970D01*
X3430676Y8742286D01*
X3413404Y8736444D01*
X3401720Y8736444D01*
X3384448Y8742286D01*
X3372764Y8753970D01*
X3367176Y8771242D01*
X3367176Y8857856D01*
X3248304Y8840330D02*
G01*
X3259734Y8852014D01*
X3277006Y8857856D01*
X3300120Y8857856D01*
X3317392Y8852014D01*
X3329076Y8840330D01*
X3329076Y8828900D01*
X3323234Y8817470D01*
X3317392Y8811628D01*
X3305962Y8805786D01*
X3271164Y8794356D01*
X3259734Y8788514D01*
X3253892Y8782672D01*
X3248304Y8771242D01*
X3248304Y8753970D01*
X3259734Y8742286D01*
X3277006Y8736444D01*
X3300120Y8736444D01*
X3317392Y8742286D01*
X3329076Y8753970D01*
X2580144Y8348586D02*
G01*
X2585732Y8360016D01*
X2597416Y8371700D01*
X2608846Y8377542D01*
X2631960Y8377542D01*
X2643644Y8371700D01*
X2655074Y8360016D01*
X2660916Y8348586D01*
X2666504Y8331314D01*
X2666504Y8302358D01*
X2660916Y8285086D01*
X2655074Y8273656D01*
X2643644Y8261972D01*
X2631960Y8256130D01*
X2608846Y8256130D01*
X2597416Y8261972D01*
X2585732Y8273656D01*
X2580144Y8285086D01*
X2580144Y8302358D01*
X2608846Y8302358D02*
G01*
X2580144Y8302358D01*
X2580144Y7073585D02*
G01*
X2585732Y7085015D01*
X2597416Y7096699D01*
X2608846Y7102541D01*
X2631960Y7102541D01*
X2643644Y7096699D01*
X2655074Y7085015D01*
X2660916Y7073585D01*
X2666504Y7056313D01*
X2666504Y7027357D01*
X2660916Y7010085D01*
X2655074Y6998655D01*
X2643644Y6986971D01*
X2631960Y6981129D01*
X2608846Y6981129D01*
X2597416Y6986971D01*
X2585732Y6998655D01*
X2580144Y7010085D01*
X2580144Y7027357D01*
X2608846Y7027357D02*
G01*
X2580144Y7027357D01*
X2580144Y4498583D02*
G01*
X2585732Y4510013D01*
X2597416Y4521697D01*
X2608846Y4527539D01*
X2631960Y4527539D01*
X2643644Y4521697D01*
X2655074Y4510013D01*
X2660916Y4498583D01*
X2666504Y4481311D01*
X2666504Y4452355D01*
X2660916Y4435083D01*
X2655074Y4423653D01*
X2643644Y4411969D01*
X2631960Y4406127D01*
X2608846Y4406127D01*
X2597416Y4411969D01*
X2585732Y4423653D01*
X2580144Y4435083D01*
X2580144Y4452355D01*
X2608846Y4452355D02*
G01*
X2580144Y4452355D01*
X2580144Y5798583D02*
G01*
X2585732Y5810013D01*
X2597416Y5821697D01*
X2608846Y5827539D01*
X2631960Y5827539D01*
X2643644Y5821697D01*
X2655074Y5810013D01*
X2660916Y5798583D01*
X2666504Y5781311D01*
X2666504Y5752355D01*
X2660916Y5735083D01*
X2655074Y5723653D01*
X2643644Y5711969D01*
X2631960Y5706127D01*
X2608846Y5706127D01*
X2597416Y5711969D01*
X2585732Y5723653D01*
X2580144Y5735083D01*
X2580144Y5752355D01*
X2608846Y5752355D02*
G01*
X2580144Y5752355D01*
X2632100Y8877477D02*
G01*
X2649372Y8871635D01*
X2660802Y8854363D01*
X2666644Y8825407D01*
X2666644Y8808135D01*
X2660802Y8779433D01*
X2649372Y8761907D01*
X2632100Y8756319D01*
X2620416Y8756319D01*
X2603144Y8761907D01*
X2591460Y8779433D01*
X2585872Y8808135D01*
X2585872Y8825407D01*
X2591460Y8854363D01*
X2603144Y8871635D01*
X2620416Y8877477D01*
X2632100Y8877477D01*
X2666644Y8604364D02*
G01*
X2654960Y8610206D01*
X2637688Y8627478D01*
X2637688Y8506320D01*
X2660802Y8098584D02*
G01*
X2660802Y8104426D01*
X2654960Y8115856D01*
X2649372Y8121698D01*
X2637688Y8127540D01*
X2614574Y8127540D01*
X2603144Y8121698D01*
X2597302Y8115856D01*
X2591460Y8104426D01*
X2591460Y8092742D01*
X2597302Y8081312D01*
X2608986Y8064040D01*
X2666644Y8006128D01*
X2585872Y8006128D01*
X2654960Y7852417D02*
G01*
X2591460Y7852417D01*
X2626258Y7806189D01*
X2608986Y7806189D01*
X2597302Y7800601D01*
X2591460Y7794759D01*
X2585872Y7777487D01*
X2585872Y7765803D01*
X2591460Y7748531D01*
X2603144Y7737101D01*
X2620416Y7731259D01*
X2637688Y7731259D01*
X2654960Y7737101D01*
X2660802Y7742689D01*
X2666644Y7754373D01*
X2608986Y7602331D02*
G01*
X2666644Y7521559D01*
X2580030Y7521559D01*
X2608986Y7602331D02*
G01*
X2608986Y7481173D01*
X2597302Y7352403D02*
G01*
X2654960Y7352403D01*
X2660802Y7300587D01*
X2654960Y7306175D01*
X2637688Y7312017D01*
X2620416Y7312017D01*
X2603144Y7306175D01*
X2591460Y7294745D01*
X2585872Y7277473D01*
X2585872Y7265789D01*
X2591460Y7248517D01*
X2603144Y7237087D01*
X2620416Y7231245D01*
X2637688Y7231245D01*
X2654960Y7237087D01*
X2660802Y7242675D01*
X2666644Y7254359D01*
X2597302Y6810189D02*
G01*
X2603144Y6821619D01*
X2620416Y6827461D01*
X2632100Y6827461D01*
X2649372Y6821619D01*
X2660802Y6804347D01*
X2666644Y6775391D01*
X2666644Y6746689D01*
X2660802Y6723575D01*
X2649372Y6711891D01*
X2632100Y6706303D01*
X2626258Y6706303D01*
X2608986Y6711891D01*
X2597302Y6723575D01*
X2591460Y6740847D01*
X2591460Y6746689D01*
X2597302Y6763961D01*
X2608986Y6775391D01*
X2626258Y6781233D01*
X2632100Y6781233D01*
X2649372Y6775391D01*
X2660802Y6763961D01*
X2666644Y6746689D01*
X2585872Y6577525D02*
G01*
X2643530Y6456113D01*
X2666644Y6577525D02*
G01*
X2585872Y6577525D01*
X2637736Y6327394D02*
G01*
X2655008Y6321552D01*
X2660850Y6310121D01*
X2660850Y6298692D01*
X2655008Y6287007D01*
X2643578Y6281165D01*
X2620464Y6275578D01*
X2603192Y6269736D01*
X2591508Y6258052D01*
X2585920Y6246621D01*
X2585920Y6229350D01*
X2591508Y6217665D01*
X2597350Y6212078D01*
X2614622Y6206236D01*
X2637736Y6206236D01*
X2655008Y6212078D01*
X2660850Y6217665D01*
X2666692Y6229350D01*
X2666692Y6246621D01*
X2660850Y6258052D01*
X2649420Y6269736D01*
X2631894Y6275578D01*
X2608780Y6281165D01*
X2597350Y6287007D01*
X2591508Y6298692D01*
X2591508Y6310121D01*
X2597350Y6321552D01*
X2614622Y6327394D01*
X2637736Y6327394D01*
X2591460Y6036932D02*
G01*
X2597302Y6019660D01*
X2608986Y6008230D01*
X2626258Y6002388D01*
X2632100Y6002388D01*
X2649372Y6008230D01*
X2660802Y6019660D01*
X2666644Y6036932D01*
X2666644Y6042774D01*
X2660802Y6060046D01*
X2649372Y6071730D01*
X2632100Y6077572D01*
X2626258Y6077572D01*
X2608986Y6071730D01*
X2597302Y6060046D01*
X2591460Y6036932D01*
X2591460Y6008230D01*
X2597302Y5979274D01*
X2608986Y5962002D01*
X2626258Y5956160D01*
X2637688Y5956160D01*
X2654960Y5962002D01*
X2660802Y5973432D01*
X2641607Y5554266D02*
G01*
X2629923Y5560108D01*
X2612651Y5577380D01*
X2612651Y5456222D01*
X2540007Y5577380D02*
G01*
X2557279Y5571792D01*
X2568963Y5554266D01*
X2574551Y5525564D01*
X2574551Y5508292D01*
X2568963Y5479336D01*
X2557279Y5462064D01*
X2540007Y5456222D01*
X2528323Y5456222D01*
X2511051Y5462064D01*
X2499621Y5479336D01*
X2493779Y5508292D01*
X2493779Y5525564D01*
X2499621Y5554266D01*
X2511051Y5571792D01*
X2528323Y5577380D01*
X2540007Y5577380D01*
X2641498Y5304396D02*
G01*
X2630068Y5310238D01*
X2612796Y5327510D01*
X2612796Y5206098D01*
X2574696Y5304396D02*
G01*
X2563012Y5310238D01*
X2545740Y5327510D01*
X2545740Y5206098D01*
X2641498Y5029459D02*
G01*
X2630068Y5035047D01*
X2612796Y5052573D01*
X2612796Y4931161D01*
X2568854Y5023617D02*
G01*
X2568854Y5029459D01*
X2563012Y5040889D01*
X2557424Y5046731D01*
X2545740Y5052573D01*
X2522626Y5052573D01*
X2511196Y5046731D01*
X2505354Y5040889D01*
X2499512Y5029459D01*
X2499512Y5017775D01*
X2505354Y5006345D01*
X2516784Y4989073D01*
X2574696Y4931161D01*
X2493924Y4931161D01*
X2641498Y4779378D02*
G01*
X2630068Y4785220D01*
X2612796Y4802492D01*
X2612796Y4681334D01*
X2563012Y4802492D02*
G01*
X2499512Y4802492D01*
X2534310Y4756264D01*
X2516784Y4756264D01*
X2505354Y4750422D01*
X2499512Y4744834D01*
X2493924Y4727308D01*
X2493924Y4715878D01*
X2499512Y4698606D01*
X2511196Y4686922D01*
X2528468Y4681334D01*
X2545740Y4681334D01*
X2563012Y4686922D01*
X2568854Y4692764D01*
X2574696Y4704194D01*
X2641498Y4279442D02*
G01*
X2630068Y4285030D01*
X2612796Y4302556D01*
X2612796Y4181144D01*
X2516784Y4302556D02*
G01*
X2574696Y4221530D01*
X2488082Y4221530D01*
X2516784Y4302556D02*
G01*
X2516784Y4181144D01*
X2641498Y4029316D02*
G01*
X2630068Y4035158D01*
X2612796Y4052430D01*
X2612796Y3931272D01*
X2505354Y4052430D02*
G01*
X2563012Y4052430D01*
X2568854Y4000614D01*
X2563012Y4006202D01*
X2545740Y4012044D01*
X2528468Y4012044D01*
X2511196Y4006202D01*
X2499512Y3994772D01*
X2493924Y3977500D01*
X2493924Y3965816D01*
X2499512Y3948544D01*
X2511196Y3937114D01*
X2528468Y3931272D01*
X2545740Y3931272D01*
X2563012Y3937114D01*
X2568854Y3942702D01*
X2574696Y3954386D01*
D11*
X3227184Y5029200D02*
G01*
X3081713Y5029200D01*
X3227184Y5029200D02*
G01*
X3227184Y5091544D01*
X3220257Y5112326D01*
X3213331Y5119255D01*
X3199475Y5126182D01*
X3185622Y5126182D01*
X3171766Y5119255D01*
X3164840Y5112326D01*
X3157913Y5091544D01*
X3157913Y5029200D01*
X3157913Y5077691D02*
G01*
X3081713Y5126182D01*
X3178695Y5255028D02*
G01*
X3081713Y5255028D01*
X3157913Y5255028D02*
G01*
X3171766Y5241175D01*
X3178695Y5227320D01*
X3178695Y5206537D01*
X3171766Y5192684D01*
X3157913Y5178828D01*
X3137131Y5171902D01*
X3123275Y5171902D01*
X3102495Y5178828D01*
X3088640Y5192684D01*
X3081713Y5206537D01*
X3081713Y5227320D01*
X3088640Y5241175D01*
X3102495Y5255028D01*
X3157913Y5376948D02*
G01*
X3171766Y5370022D01*
X3178695Y5349239D01*
X3178695Y5328457D01*
X3171766Y5307675D01*
X3157913Y5300748D01*
X3144057Y5307675D01*
X3137131Y5321531D01*
X3130204Y5356166D01*
X3123275Y5370022D01*
X3109422Y5376948D01*
X3102495Y5376948D01*
X3088640Y5370022D01*
X3081713Y5349239D01*
X3081713Y5328457D01*
X3088640Y5307675D01*
X3102495Y5300748D01*
X3178695Y5422668D02*
G01*
X3033222Y5422668D01*
X3157913Y5422668D02*
G01*
X3171766Y5436524D01*
X3178695Y5450377D01*
X3178695Y5471160D01*
X3171766Y5485015D01*
X3157913Y5498868D01*
X3137131Y5505795D01*
X3123275Y5505795D01*
X3102495Y5498868D01*
X3088640Y5485015D01*
X3081713Y5471160D01*
X3081713Y5450377D01*
X3088640Y5436524D01*
X3102495Y5422668D01*
X3227184Y5551515D02*
G01*
X3081713Y5551515D01*
X3157913Y5551515D02*
G01*
X3171766Y5565371D01*
X3178695Y5579224D01*
X3178695Y5600006D01*
X3171766Y5613862D01*
X3157913Y5627715D01*
X3137131Y5634644D01*
X3123275Y5634644D01*
X3102495Y5627715D01*
X3088640Y5613862D01*
X3081713Y5600006D01*
X3081713Y5579224D01*
X3088640Y5565371D01*
X3102495Y5551515D01*
X3137131Y5680364D02*
G01*
X3137131Y5763491D01*
X3150984Y5763491D01*
X3164840Y5756564D01*
X3171766Y5749635D01*
X3178695Y5735782D01*
X3178695Y5715000D01*
X3171766Y5701144D01*
X3157913Y5687291D01*
X3137131Y5680364D01*
X3123275Y5680364D01*
X3102495Y5687291D01*
X3088640Y5701144D01*
X3081713Y5715000D01*
X3081713Y5735782D01*
X3088640Y5749635D01*
X3102495Y5763491D01*
X3178695Y5809211D02*
G01*
X3081713Y5809211D01*
X3137131Y5809211D02*
G01*
X3157913Y5816137D01*
X3171766Y5829993D01*
X3178695Y5843846D01*
X3178695Y5864628D01*
X3178695Y5910348D02*
G01*
X3081713Y5910348D01*
X3137131Y5910348D02*
G01*
X3157913Y5917275D01*
X3171766Y5931131D01*
X3178695Y5944984D01*
X3178695Y5965766D01*
X3178695Y6018415D02*
G01*
X3081713Y6059977D01*
X3178695Y6101542D02*
G01*
X3081713Y6059977D01*
X3054004Y6046124D01*
X3040148Y6032268D01*
X3033222Y6018415D01*
X3033222Y6011486D01*
X3227184Y6253942D02*
G01*
X3081713Y6253942D01*
X3227184Y6253942D02*
G01*
X3227184Y6316286D01*
X3220257Y6337068D01*
X3213331Y6343995D01*
X3199475Y6350924D01*
X3178695Y6350924D01*
X3164840Y6343995D01*
X3157913Y6337068D01*
X3150984Y6316286D01*
X3150984Y6253942D01*
X3227184Y6396644D02*
G01*
X3220257Y6403571D01*
X3227184Y6410497D01*
X3234113Y6403571D01*
X3227184Y6396644D01*
X3178695Y6403571D02*
G01*
X3081713Y6403571D01*
X3227184Y6562897D02*
G01*
X3081713Y6562897D01*
X3227184Y6562897D02*
G01*
X3227184Y6625244D01*
X3220257Y6646024D01*
X3213331Y6652953D01*
X3199475Y6659879D01*
X3178695Y6659879D01*
X3164840Y6652953D01*
X3157913Y6646024D01*
X3150984Y6625244D01*
X3150984Y6562897D01*
X3227184Y6705600D02*
G01*
X3220257Y6712526D01*
X3227184Y6719455D01*
X3234113Y6712526D01*
X3227184Y6705600D01*
X3178695Y6712526D02*
G01*
X3081713Y6712526D01*
X3157913Y6848302D02*
G01*
X3171766Y6834446D01*
X3178695Y6820593D01*
X3178695Y6799811D01*
X3171766Y6785955D01*
X3157913Y6772102D01*
X3137131Y6765175D01*
X3123275Y6765175D01*
X3102495Y6772102D01*
X3088640Y6785955D01*
X3081713Y6799811D01*
X3081713Y6820593D01*
X3088640Y6834446D01*
X3102495Y6848302D01*
X3178695Y6928657D02*
G01*
X3171766Y6914804D01*
X3157913Y6900948D01*
X3137131Y6894022D01*
X3123275Y6894022D01*
X3102495Y6900948D01*
X3088640Y6914804D01*
X3081713Y6928657D01*
X3081713Y6949439D01*
X3088640Y6963295D01*
X3102495Y6977148D01*
X3123275Y6984075D01*
X3137131Y6984075D01*
X3157913Y6977148D01*
X3171766Y6963295D01*
X3178695Y6949439D01*
X3178695Y6928657D01*
X3227184Y7136475D02*
G01*
X3081713Y7171113D01*
X3227184Y7205748D02*
G01*
X3081713Y7171113D01*
X3227184Y7205748D02*
G01*
X3081713Y7240384D01*
X3227184Y7275022D02*
G01*
X3081713Y7240384D01*
D12*
X2993110Y7742265D02*
G01*
X3297910Y7742265D01*
X3297910Y4948265D01*
X2993110Y4948265D01*
X2993110Y7742265D01*
M02*
