G04 Layer: BottomLayer*
G04 EasyEDA v6.5.22, 2023-01-22 13:06:19*
G04 0c68e4b3833447f1a742fbae9dbd46bb,e6ab44e7981244f9a09eab8f9c412657,10*
G04 Gerber Generator version 0.2*
G04 Scale: 100 percent, Rotated: No, Reflected: No *
G04 Dimensions in millimeters *
G04 leading zeros omitted , absolute positions ,4 integer and 5 decimal *
%FSLAX45Y45*%
%MOMM*%

%ADD10C,1.0000*%
%ADD11C,0.2540*%
%ADD12O,1.9999959999999999X0.9999979999999999*%
%ADD13C,1.5748*%
%ADD14R,1.5748X1.5748*%
%ADD15O,3.1999936X1.5999968*%
%ADD16C,0.6096*%

%LPD*%
D10*
X4013200Y8293100D02*
G01*
X4091000Y8370900D01*
X4737100Y8370900D01*
X4013200Y8547100D02*
G01*
X4036999Y8570899D01*
X4737100Y8570899D01*
D11*
X2235202Y8293100D02*
G01*
X2133627Y8191525D01*
X1111531Y8191525D01*
X1065659Y8145653D01*
X1065659Y8019643D01*
X1193802Y7891500D01*
X4013202Y8293100D02*
G01*
X2235202Y8293100D01*
X1600202Y6388100D02*
G01*
X1341401Y6646900D01*
X1193802Y6646900D01*
X2235202Y5753100D02*
G01*
X1600202Y6388100D01*
X2235202Y7023100D02*
G01*
X1600202Y6388100D01*
X4013202Y7023100D02*
G01*
X2235202Y7023100D01*
X4013202Y5753100D02*
G01*
X2235202Y5753100D01*
X2235202Y4483100D02*
G01*
X1268503Y4483100D01*
X1206502Y4545101D01*
X4013202Y4483100D02*
G01*
X2235202Y4483100D01*
X2235202Y7531100D02*
G01*
X1298831Y7531100D01*
X1051384Y7283653D01*
X1051384Y7189317D01*
X1193802Y7046899D01*
X2235202Y7277100D02*
G01*
X1224003Y7277100D01*
X1193802Y7246899D01*
X1206502Y5545099D02*
G01*
X1710921Y6049518D01*
X1852830Y6049518D01*
X1206502Y5345099D02*
G01*
X1687857Y5826455D01*
X1913308Y5826455D01*
X2235202Y5499100D02*
G01*
X1560502Y5499100D01*
X1206502Y5145100D01*
X2235202Y5245100D02*
G01*
X2430401Y5049901D01*
X2430401Y4952085D01*
X2342415Y4864100D01*
X1287503Y4864100D01*
X1206502Y4945100D01*
X1206502Y5745098D02*
G01*
X1075082Y5613679D01*
X1075082Y5110530D01*
X1140487Y5045125D01*
X2181176Y5045125D01*
X2235202Y4991100D01*
X2235202Y4737100D02*
G01*
X2149096Y4823205D01*
X1159487Y4823205D01*
X1028600Y4954092D01*
X1028600Y5767196D01*
X1206502Y5945098D01*
X1387604Y7897698D02*
G01*
X1193802Y8091500D01*
X4013202Y7785100D02*
G01*
X3900604Y7897698D01*
X1387604Y7897698D01*
X1387604Y7897698D02*
G01*
X1000381Y7510475D01*
X1000381Y7040321D01*
X1193802Y6846900D01*
D12*
G01*
X4737100Y8370900D03*
G01*
X4737100Y8570899D03*
D13*
G01*
X2235200Y8801100D03*
G01*
X2235200Y8547100D03*
G01*
X2235200Y8293100D03*
G01*
X2235200Y8039100D03*
G01*
X2235200Y7785100D03*
G01*
X2235200Y7531100D03*
G01*
X2235200Y7277100D03*
G01*
X2235200Y7023100D03*
G01*
X2235200Y6769100D03*
G01*
X2235200Y6515100D03*
G01*
X2235200Y6261100D03*
G01*
X2235200Y6007100D03*
G01*
X2235200Y5753100D03*
G01*
X2235200Y5499100D03*
G01*
X2235200Y5245100D03*
G01*
X2235200Y4991100D03*
G01*
X2235200Y4737100D03*
G01*
X2235200Y4483100D03*
G01*
X2235200Y4229100D03*
D14*
G01*
X2235200Y3975100D03*
D13*
G01*
X4013200Y3975100D03*
G01*
X4013200Y4229100D03*
G01*
X4013200Y4483100D03*
G01*
X4013200Y4737100D03*
G01*
X4013200Y4991100D03*
G01*
X4013200Y5245100D03*
G01*
X4013200Y5499100D03*
G01*
X4013200Y5753100D03*
G01*
X4013200Y6007100D03*
G01*
X4013200Y6261100D03*
G01*
X4013200Y6515100D03*
G01*
X4013200Y6769100D03*
G01*
X4013200Y7023100D03*
G01*
X4013200Y7277100D03*
G01*
X4013200Y7531100D03*
G01*
X4013200Y7785100D03*
G01*
X4013200Y8039100D03*
G01*
X4013200Y8293100D03*
G01*
X4013200Y8547100D03*
D14*
G01*
X4013200Y8801100D03*
D12*
G01*
X1193800Y7046899D03*
G01*
X1193800Y7246899D03*
G01*
X1193800Y6846900D03*
G01*
X1193800Y6646900D03*
G01*
X1193800Y8291499D03*
G01*
X1193800Y8491499D03*
G01*
X1193800Y8091500D03*
G01*
X1193800Y7891500D03*
G01*
X1206500Y4945100D03*
G01*
X1206500Y5145100D03*
G01*
X1206500Y5345099D03*
G01*
X1206500Y4745101D03*
G01*
X1206500Y4545101D03*
G01*
X1206500Y5545099D03*
G01*
X1206500Y5745098D03*
G01*
X1206500Y5945098D03*
D15*
G01*
X2235200Y8801100D03*
G01*
X2235200Y8547100D03*
G01*
X2235200Y8293100D03*
G01*
X2235200Y8039100D03*
G01*
X2235200Y7785100D03*
G01*
X2235200Y7531100D03*
G01*
X2235200Y7277100D03*
G01*
X2235200Y7023100D03*
G01*
X2235200Y6769100D03*
G01*
X2235200Y6515100D03*
G01*
X2235200Y6261100D03*
G01*
X2235200Y6007100D03*
G01*
X2235200Y5753100D03*
G01*
X2235200Y5499100D03*
G01*
X2235200Y5245100D03*
G01*
X2235200Y4991100D03*
G01*
X2235200Y4737100D03*
G01*
X2235200Y4483100D03*
G01*
X2235200Y4229100D03*
G01*
X2235200Y3975100D03*
G01*
X4013200Y3975100D03*
G01*
X4013200Y4229100D03*
G01*
X4013200Y4483100D03*
G01*
X4013200Y4737100D03*
G01*
X4013200Y4991100D03*
G01*
X4013200Y5245100D03*
G01*
X4013200Y5499100D03*
G01*
X4013200Y5753100D03*
G01*
X4013200Y6007100D03*
G01*
X4013200Y6261100D03*
G01*
X4013200Y6515100D03*
G01*
X4013200Y6769100D03*
G01*
X4013200Y7023100D03*
G01*
X4013200Y7277100D03*
G01*
X4013200Y7531100D03*
G01*
X4013200Y7785100D03*
G01*
X4013200Y8039100D03*
G01*
X4013200Y8293100D03*
G01*
X4013200Y8547100D03*
G01*
X4013200Y8801100D03*
D16*
G01*
X1852828Y6049518D03*
G01*
X1913305Y5826455D03*
M02*
