G04 Layer: TopSolderMaskLayer*
G04 EasyEDA v6.5.22, 2023-01-22 13:06:19*
G04 0c68e4b3833447f1a742fbae9dbd46bb,e6ab44e7981244f9a09eab8f9c412657,10*
G04 Gerber Generator version 0.2*
G04 Scale: 100 percent, Rotated: No, Reflected: No *
G04 Dimensions in millimeters *
G04 leading zeros omitted , absolute positions ,4 integer and 5 decimal *
%FSLAX45Y45*%
%MOMM*%

%AMMACRO1*1,1,$1,$2,$3*1,1,$1,$4,$5*1,1,$1,0-$2,0-$3*1,1,$1,0-$4,0-$5*20,1,$1,$2,$3,$4,$5,0*20,1,$1,$4,$5,0-$2,0-$3,0*20,1,$1,0-$2,0-$3,0-$4,0-$5,0*20,1,$1,0-$4,0-$5,$2,$3,0*4,1,4,$2,$3,$4,$5,0-$2,0-$3,0-$4,0-$5,$2,$3,0*%
%ADD10C,0.2540*%
%ADD11O,2.2031959999999997X1.203198*%
%ADD12C,1.6764*%
%ADD13R,1.6764X1.6764*%
%ADD14MACRO1,0.1016X0.7874X0.7874X0.7874X-0.7874*%
%ADD15MACRO1,0.2032X-1.6X0.8X1.6X0.8*%
%ADD16O,3.3015936X1.7015968000000001*%

%LPD*%
D10*
X2924190Y8741763D02*
G01*
X2924190Y8637877D01*
X2931048Y8617303D01*
X2945018Y8603333D01*
X2965846Y8596475D01*
X2979562Y8596475D01*
X3000390Y8603333D01*
X3014360Y8617303D01*
X3021218Y8637877D01*
X3021218Y8741763D01*
X3163966Y8721189D02*
G01*
X3149996Y8734905D01*
X3129168Y8741763D01*
X3101482Y8741763D01*
X3080654Y8734905D01*
X3066938Y8721189D01*
X3066938Y8707219D01*
X3073796Y8693503D01*
X3080654Y8686391D01*
X3094624Y8679533D01*
X3136280Y8665563D01*
X3149996Y8658705D01*
X3156854Y8651847D01*
X3163966Y8637877D01*
X3163966Y8617303D01*
X3149996Y8603333D01*
X3129168Y8596475D01*
X3101482Y8596475D01*
X3080654Y8603333D01*
X3066938Y8617303D01*
X3209686Y8741763D02*
G01*
X3209686Y8596475D01*
X3209686Y8741763D02*
G01*
X3271916Y8741763D01*
X3292744Y8734905D01*
X3299602Y8728047D01*
X3306460Y8714077D01*
X3306460Y8700361D01*
X3299602Y8686391D01*
X3292744Y8679533D01*
X3271916Y8672675D01*
X3209686Y8672675D02*
G01*
X3271916Y8672675D01*
X3292744Y8665563D01*
X3299602Y8658705D01*
X3306460Y8644989D01*
X3306460Y8624161D01*
X3299602Y8610191D01*
X3292744Y8603333D01*
X3271916Y8596475D01*
X3209686Y8596475D01*
D11*
G01*
X4737100Y8370900D03*
G01*
X4737100Y8570899D03*
D12*
G01*
X2235200Y8801100D03*
G01*
X2235200Y8547100D03*
G01*
X2235200Y8293100D03*
G01*
X2235200Y8039100D03*
G01*
X2235200Y7785100D03*
G01*
X2235200Y7531100D03*
G01*
X2235200Y7277100D03*
G01*
X2235200Y7023100D03*
G01*
X2235200Y6769100D03*
G01*
X2235200Y6515100D03*
G01*
X2235200Y6261100D03*
G01*
X2235200Y6007100D03*
G01*
X2235200Y5753100D03*
G01*
X2235200Y5499100D03*
G01*
X2235200Y5245100D03*
G01*
X2235200Y4991100D03*
G01*
X2235200Y4737100D03*
G01*
X2235200Y4483100D03*
G01*
X2235200Y4229100D03*
D13*
G01*
X2235200Y3975100D03*
D12*
G01*
X4013200Y3975100D03*
G01*
X4013200Y4229100D03*
G01*
X4013200Y4483100D03*
G01*
X4013200Y4737100D03*
G01*
X4013200Y4991100D03*
G01*
X4013200Y5245100D03*
G01*
X4013200Y5499100D03*
G01*
X4013200Y5753100D03*
G01*
X4013200Y6007100D03*
G01*
X4013200Y6261100D03*
G01*
X4013200Y6515100D03*
G01*
X4013200Y6769100D03*
G01*
X4013200Y7023100D03*
G01*
X4013200Y7277100D03*
G01*
X4013200Y7531100D03*
G01*
X4013200Y7785100D03*
G01*
X4013200Y8039100D03*
G01*
X4013200Y8293100D03*
G01*
X4013200Y8547100D03*
D14*
G01*
X4013200Y8801100D03*
D11*
G01*
X1193800Y7046899D03*
G01*
X1193800Y7246899D03*
G01*
X1193800Y6846900D03*
G01*
X1193800Y6646900D03*
G01*
X1193800Y8291499D03*
G01*
X1193800Y8491499D03*
G01*
X1193800Y8091500D03*
G01*
X1193800Y7891500D03*
G01*
X1206500Y4945100D03*
G01*
X1206500Y5145100D03*
G01*
X1206500Y5345099D03*
G01*
X1206500Y4745101D03*
G01*
X1206500Y4545101D03*
G01*
X1206500Y5545099D03*
G01*
X1206500Y5745098D03*
G01*
X1206500Y5945098D03*
D15*
G01*
X2120889Y8801092D03*
G01*
X2120889Y8547092D03*
G01*
X2120889Y8293092D03*
G01*
X2120889Y8039092D03*
G01*
X2120889Y7785092D03*
G01*
X2120889Y7531092D03*
G01*
X2120889Y7277092D03*
G01*
X2120889Y7023092D03*
G01*
X2120889Y6769092D03*
G01*
X2120889Y6515092D03*
G01*
X2120889Y6261092D03*
G01*
X2120889Y6007092D03*
G01*
X2120889Y5753092D03*
G01*
X2120889Y5499092D03*
G01*
X2120889Y5245092D03*
G01*
X2120889Y4991092D03*
G01*
X2120889Y4737092D03*
G01*
X2120889Y4483092D03*
G01*
X2120889Y4229092D03*
G01*
X2120889Y3975092D03*
G01*
X4127489Y3975092D03*
G01*
X4127489Y4229092D03*
G01*
X4127489Y4483092D03*
G01*
X4127489Y4737092D03*
G01*
X4127489Y4991092D03*
G01*
X4127489Y5245092D03*
G01*
X4127489Y5499092D03*
G01*
X4127489Y5753092D03*
G01*
X4127489Y6007092D03*
G01*
X4127489Y6261092D03*
G01*
X4127489Y6515092D03*
G01*
X4127489Y6769092D03*
G01*
X4127489Y7023092D03*
G01*
X4127489Y7277092D03*
G01*
X4127489Y7531092D03*
G01*
X4127489Y7785092D03*
G01*
X4127489Y8039092D03*
G01*
X4127489Y8293092D03*
G01*
X4127489Y8547092D03*
G01*
X4127489Y8801092D03*
D16*
G01*
X2235200Y8801100D03*
G01*
X2235200Y8547100D03*
G01*
X2235200Y8293100D03*
G01*
X2235200Y8039100D03*
G01*
X2235200Y7785100D03*
G01*
X2235200Y7531100D03*
G01*
X2235200Y7277100D03*
G01*
X2235200Y7023100D03*
G01*
X2235200Y6769100D03*
G01*
X2235200Y6515100D03*
G01*
X2235200Y6261100D03*
G01*
X2235200Y6007100D03*
G01*
X2235200Y5753100D03*
G01*
X2235200Y5499100D03*
G01*
X2235200Y5245100D03*
G01*
X2235200Y4991100D03*
G01*
X2235200Y4737100D03*
G01*
X2235200Y4483100D03*
G01*
X2235200Y4229100D03*
G01*
X2235200Y3975100D03*
G01*
X4013200Y3975100D03*
G01*
X4013200Y4229100D03*
G01*
X4013200Y4483100D03*
G01*
X4013200Y4737100D03*
G01*
X4013200Y4991100D03*
G01*
X4013200Y5245100D03*
G01*
X4013200Y5499100D03*
G01*
X4013200Y5753100D03*
G01*
X4013200Y6007100D03*
G01*
X4013200Y6261100D03*
G01*
X4013200Y6515100D03*
G01*
X4013200Y6769100D03*
G01*
X4013200Y7023100D03*
G01*
X4013200Y7277100D03*
G01*
X4013200Y7531100D03*
G01*
X4013200Y7785100D03*
G01*
X4013200Y8039100D03*
G01*
X4013200Y8293100D03*
G01*
X4013200Y8547100D03*
G01*
X4013200Y8801100D03*
M02*
