G04 Layer: TopPasteMaskLayer*
G04 EasyEDA v6.5.22, 2023-01-22 13:06:19*
G04 0c68e4b3833447f1a742fbae9dbd46bb,e6ab44e7981244f9a09eab8f9c412657,10*
G04 Gerber Generator version 0.2*
G04 Scale: 100 percent, Rotated: No, Reflected: No *
G04 Dimensions in millimeters *
G04 leading zeros omitted , absolute positions ,4 integer and 5 decimal *
%FSLAX45Y45*%
%MOMM*%

%ADD10R,3.2000X1.6000*%

%LPD*%
D10*
G01*
X2120900Y8801100D03*
G01*
X2120900Y8547100D03*
G01*
X2120900Y8293100D03*
G01*
X2120900Y8039100D03*
G01*
X2120900Y7785100D03*
G01*
X2120900Y7531100D03*
G01*
X2120900Y7277100D03*
G01*
X2120900Y7023100D03*
G01*
X2120900Y6769100D03*
G01*
X2120900Y6515100D03*
G01*
X2120900Y6261100D03*
G01*
X2120900Y6007100D03*
G01*
X2120900Y5753100D03*
G01*
X2120900Y5499100D03*
G01*
X2120900Y5245100D03*
G01*
X2120900Y4991100D03*
G01*
X2120900Y4737100D03*
G01*
X2120900Y4483100D03*
G01*
X2120900Y4229100D03*
G01*
X2120900Y3975100D03*
G01*
X4127500Y3975100D03*
G01*
X4127500Y4229100D03*
G01*
X4127500Y4483100D03*
G01*
X4127500Y4737100D03*
G01*
X4127500Y4991100D03*
G01*
X4127500Y5245100D03*
G01*
X4127500Y5499100D03*
G01*
X4127500Y5753100D03*
G01*
X4127500Y6007100D03*
G01*
X4127500Y6261100D03*
G01*
X4127500Y6515100D03*
G01*
X4127500Y6769100D03*
G01*
X4127500Y7023100D03*
G01*
X4127500Y7277100D03*
G01*
X4127500Y7531100D03*
G01*
X4127500Y7785100D03*
G01*
X4127500Y8039100D03*
G01*
X4127500Y8293100D03*
G01*
X4127500Y8547100D03*
G01*
X4127500Y8801100D03*
M02*
